<svg id="Layer_1" viewBox="0 0 512 512" xmlns="http://www.w3.org/2000/svg" data-name="Layer 1"><circle cx="256" cy="256" fill="#46cc6b" r="251.946" transform="matrix(.707 -.707 .707 .707 -106.039 256)"/><g fill-rule="evenodd"><path d="m125.973 241.955 23.805-23.811c3.681-3.684 8.423-5.297 13.599-4.611 5.166.677 9.331 3.46 11.938 7.978l43.496 75.34 163.101-163.108c3.38-3.379 7.728-4.855 12.467-4.232 4.742.632 8.555 3.178 10.944 7.314l17.453 30.231c4.348 7.532 3.136 16.722-3.008 22.862l-182.177 182.18c-8.148 8.144-18.61 11.701-30.029 10.197-11.422-1.51-20.605-7.644-26.37-17.62l-58.124-100.677c-4.194-7.26-3.027-16.116 2.905-22.042z" fill="#20a561"/><path d="m109.006 241.955 23.805-23.811c3.681-3.684 8.424-5.297 13.599-4.611 5.166.677 9.331 3.46 11.938 7.978l43.496 75.34 163.101-163.108c3.379-3.379 7.727-4.855 12.467-4.232 4.742.632 8.555 3.178 10.944 7.314l17.453 30.231c4.348 7.532 3.136 16.722-3.007 22.862l-182.177 182.18c-8.148 8.144-18.61 11.701-30.029 10.197-11.422-1.51-20.605-7.644-26.37-17.62l-58.124-100.677c-4.194-7.26-3.027-16.116 2.905-22.042z" fill="#fff"/></g></svg>