<svg viewBox="0 0 512 512" xmlns="http://www.w3.org/2000/svg" xmlns:xlink="http://www.w3.org/1999/xlink"><linearGradient id="linear-gradient" gradientUnits="userSpaceOnUse" x1="75.89" x2="424.16" y1="75.89" y2="424.16"><stop offset="0" stop-color="#ff70d6"/><stop offset="1" stop-color="#c95bf4"/></linearGradient><linearGradient id="linear-gradient-2" gradientUnits="userSpaceOnUse" x1="207.35" x2="440.8" y1="182.55" y2="416"><stop offset="0" stop-color="#bc069a"/><stop offset="1" stop-color="#a438d6" stop-opacity="0"/></linearGradient><g id="Layer_2" data-name="Layer 2"><g id="Layer_1_copy_3" data-name="Layer 1 copy 3"><g id="_27" data-name="27"><circle cx="256" cy="256" fill="url(#linear-gradient)" r="256"/><path d="m507.26 305.27a256.39 256.39 0 0 1 -163.2 191.17l-212.51-212.51-5.55-15 5.54-11.77 22.16-22.16 15-5 11.73 5 36.22 36.24 114.87-114.93 14.76-4.31 12 4.3z" fill="url(#linear-gradient-2)"/><path d="m131.54 257.15 22.16-22.15a18.93 18.93 0 0 1 26.77 0l36.22 36.24 114.83-114.93a18.92 18.92 0 0 1 26.77 0l22.16 22.15a18.93 18.93 0 0 1 0 26.76l-150.24 150.47a18.92 18.92 0 0 1 -26.77 0l-71.89-71.78a18.94 18.94 0 0 1 -.01-26.76z" fill="#fff"/></g></g></g></svg>