<svg viewBox="0 -31 512 512" xmlns="http://www.w3.org/2000/svg"><path d="m512 30v60l-219.699219 60-90-120zm0 0" fill="#3e5959"/><path d="m292.300781 90-90-90h-202.300781v450h512v-360zm0 0" fill="#fdbf00"/><path d="m512 90v360h-316v-450h6.300781l90 90zm0 0" fill="#ff9f00"/><path d="m361 270h91v30h-91zm0 0" fill="#e2e2e7"/><path d="m361 330h91v30h-91zm0 0" fill="#e2e2e7"/><path d="m196 120c-74.398438 0-135 60.597656-135 135 0 74.398438 60.601562 135 135 135s135-60.601562 135-135c0-74.402344-60.601562-135-135-135zm0 0" fill="#25d9f8"/><path d="m331 255c0 74.398438-60.601562 135-135 135v-270c74.398438 0 135 60.597656 135 135zm0 0" fill="#00c0f1"/><path d="m266.5 235.5-70.5 70.800781-15 15-55.5-55.800781 21-21 34.5 34.199219 15-15 49.5-49.199219zm0 0" fill="#ececf1"/><path d="m266.5 235.5-70.5 70.800781v-42.601562l49.5-49.199219zm0 0" fill="#e2e2e7"/></svg>